<svg width="33" height="33" viewBox="0 0 33 33" fill="none" xmlns="http://www.w3.org/2000/svg">
<path d="M16.4216 20.8799C18.7688 20.8799 20.6716 18.9772 20.6716 16.6299C20.6716 14.2827 18.7688 12.3799 16.4216 12.3799C14.0744 12.3799 12.1716 14.2827 12.1716 16.6299C12.1716 18.9772 14.0744 20.8799 16.4216 20.8799Z" stroke="black" stroke-width="3" stroke-linecap="round" stroke-linejoin="round"/>
<path d="M22.4216 4.62994H10.4216C7.10792 4.62994 4.42163 7.31624 4.42163 10.6299V22.6299C4.42163 25.9437 7.10792 28.6299 10.4216 28.6299H22.4216C25.7353 28.6299 28.4216 25.9437 28.4216 22.6299V10.6299C28.4216 7.31624 25.7353 4.62994 22.4216 4.62994Z" stroke="black" stroke-width="3" stroke-linecap="round" stroke-linejoin="round"/>
<path d="M22.9216 12.1299C24.0262 12.1299 24.9216 11.2345 24.9216 10.1299C24.9216 9.02537 24.0262 8.12994 22.9216 8.12994C21.8171 8.12994 20.9216 9.02537 20.9216 10.1299C20.9216 11.2345 21.8171 12.1299 22.9216 12.1299Z" fill="black"/>
</svg>
