<svg width="33" height="33" viewBox="0 0 33 33" fill="none" xmlns="http://www.w3.org/2000/svg">
<path d="M26.9216 5.12994H5.92163C5.36935 5.12994 4.92163 5.57766 4.92163 6.12994V27.1299C4.92163 27.6822 5.36935 28.1299 5.92163 28.1299H26.9216C27.4739 28.1299 27.9216 27.6822 27.9216 27.1299V6.12994C27.9216 5.57766 27.4739 5.12994 26.9216 5.12994Z" stroke="black" stroke-width="3" stroke-linecap="round" stroke-linejoin="round"/>
<path d="M15.9216 15.6299V22.6299" stroke="black" stroke-width="3" stroke-linecap="round" stroke-linejoin="round"/>
<path d="M10.9216 15.6299V22.6299" stroke="black" stroke-width="3" stroke-linecap="round" stroke-linejoin="round"/>
<path d="M15.9216 19.1299C15.9216 18.2017 16.2904 17.3114 16.9468 16.6551C17.6031 15.9987 18.4934 15.6299 19.4216 15.6299C20.3499 15.6299 21.2401 15.9987 21.8965 16.6551C22.5529 17.3114 22.9216 18.2017 22.9216 19.1299V22.6299" stroke="black" stroke-width="3" stroke-linecap="round" stroke-linejoin="round"/>
<path d="M10.9216 12.6299C12.0262 12.6299 12.9216 11.7345 12.9216 10.6299C12.9216 9.52537 12.0262 8.62994 10.9216 8.62994C9.81706 8.62994 8.92163 9.52537 8.92163 10.6299C8.92163 11.7345 9.81706 12.6299 10.9216 12.6299Z" fill="black"/>
</svg>
