<?xml version="1.0" standalone="no"?>
<!DOCTYPE svg PUBLIC "-//W3C//DTD SVG 20010904//EN"
 "http://www.w3.org/TR/2001/REC-SVG-20010904/DTD/svg10.dtd">
<svg version="1.0" xmlns="http://www.w3.org/2000/svg"
 width="80.000000pt" height="40.000000pt" viewBox="0 0 298.000000 123.000000"
 preserveAspectRatio="xMidYMid meet">

<g transform="translate(0.000000,123.000000) scale(0.100000,-0.100000)"
fill="#000000" stroke="none">
<path d="M160 583 l0 -466 137 6 c75 4 237 7 360 7 192 0 223 2 223 15 0 13
-46 15 -355 15 l-355 0 0 425 0 425 355 0 c290 0 355 2 355 13 0 11 -55 15
-272 20 -149 4 -311 7 -360 7 l-88 0 0 -467z"/>
<path d="M1090 1013 c-42 -22 -74 -79 -64 -117 3 -15 26 -43 51 -64 25 -20 58
-49 75 -63 22 -18 29 -31 24 -44 -6 -18 -42 -18 -103 1 -18 5 -23 1 -29 -22
-10 -37 5 -57 56 -73 86 -28 177 18 187 95 6 50 -27 97 -100 140 -35 20 -53
38 -55 54 -4 23 -3 23 59 17 40 -5 67 -3 75 4 62 51 -93 115 -176 72z m133
-30 c18 -9 27 -18 20 -20 -7 -2 -21 0 -32 6 -31 17 -76 13 -105 -10 -33 -26
-33 -37 5 -88 24 -33 26 -40 10 -32 -54 30 -65 90 -24 133 31 33 77 37 126 11z
m16 -207 c7 -8 11 -21 9 -29 -2 -9 -13 0 -31 25 -21 30 -23 37 -9 29 10 -5 24
-17 31 -25z m-9 -80 c0 -3 -7 -12 -16 -20 -18 -19 -119 -22 -130 -4 -5 8 7 9
48 5 40 -5 60 -3 74 8 21 16 24 17 24 11z"/>
<path d="M1397 1018 c-16 -12 -17 -31 -15 -198 l3 -185 42 -3 42 -3 3 63 3 62
58 12 c31 6 67 20 79 30 24 22 48 74 48 105 0 38 -31 87 -65 103 -47 23 -175
32 -198 14z m198 -63 c15 -14 25 -36 25 -53 0 -31 -33 -82 -53 -82 -7 0 -5 5
4 10 27 16 41 62 30 93 -13 33 -46 47 -113 47 l-50 0 6 -67 c9 -103 9 -105 -2
-143 -8 -28 -10 -10 -11 93 l-1 127 70 0 c62 0 74 -3 95 -25z m-47 -37 c7 -7
12 -23 12 -36 0 -21 -4 -23 -42 -20 -44 3 -57 20 -44 54 7 17 57 19 74 2z"/>
<path d="M1752 836 c1 -107 6 -197 10 -201 22 -22 28 17 28 180 l0 173 69 7
c38 4 79 4 90 0 42 -13 8 -25 -70 -25 l-79 0 0 -54 c0 -38 6 -60 20 -79 20
-25 20 -25 0 -30 -17 -4 -20 -14 -20 -71 l0 -66 83 -1 c86 -1 76 -16 -12 -18
-31 -1 -42 -4 -35 -11 6 -6 43 -10 85 -8 l74 3 3 38 3 37 -64 0 c-68 0 -92 13
-85 47 2 13 16 20 52 25 69 10 76 14 76 47 0 24 -5 32 -22 35 -77 14 -102 23
-112 38 -6 9 -8 20 -5 23 3 3 39 9 80 13 l74 7 3 43 3 42 -126 0 -127 0 4
-194z m178 -16 c0 -5 -11 -10 -24 -10 -14 0 -28 5 -31 10 -4 6 7 10 24 10 17
0 31 -4 31 -10z"/>
<path d="M2225 992 c-35 -53 -155 -317 -155 -341 0 -38 56 -34 93 7 38 42 161
40 177 -3 5 -12 21 -25 35 -29 28 -7 65 0 65 13 0 11 -170 375 -180 385 -4 4
-20 -10 -35 -32z m93 -167 c27 -60 53 -121 57 -135 l8 -25 -21 25 c-19 24 -26
25 -117 25 -91 0 -97 -1 -116 -25 l-19 -25 9 26 c12 34 98 206 119 237 8 13
19 19 23 15 4 -4 30 -57 57 -118z"/>
<path d="M2201 833 c-23 -47 -39 -88 -36 -92 12 -12 175 -14 175 -2 0 15 -77
168 -88 175 -4 2 -27 -34 -51 -81z m79 -48 c0 -16 -41 -28 -54 -15 -5 5 -4 22
4 41 l14 32 18 -23 c10 -12 18 -28 18 -35z"/>
<path d="M2530 1020 c-12 -8 -16 -44 -18 -200 l-3 -190 40 0 c22 0 43 6 48 13
4 6 13 41 18 76 l10 65 52 -72 c55 -76 103 -103 150 -85 21 8 18 12 -47 103
-38 52 -70 100 -70 106 0 6 25 43 55 84 60 78 65 103 24 108 -32 4 -74 -29
-126 -100 l-38 -52 -11 68 c-13 80 -39 104 -84 76z m194 -87 c-15 -21 -36 -49
-46 -62 -25 -33 -23 -47 16 -94 18 -23 41 -55 51 -72 13 -23 8 -20 -25 15 -23
25 -53 60 -67 77 l-25 33 33 42 c38 50 81 98 87 98 2 0 -8 -17 -24 -37z"/>
<path d="M373 875 c-67 -53 -91 -131 -59 -194 20 -38 90 -100 164 -145 53 -32
62 -41 62 -67 0 -47 -39 -57 -114 -30 -53 19 -62 19 -82 7 -12 -8 -26 -28 -32
-45 -15 -44 12 -74 86 -95 177 -49 304 25 304 178 0 24 -5 54 -11 65 -13 24
-92 84 -174 132 -60 35 -79 67 -57 94 17 21 39 19 103 -11 64 -29 86 -24 112
27 22 41 12 64 -39 88 -34 17 -62 21 -137 21 -85 0 -97 -3 -126 -25z"/>
<path d="M688 774 c-46 -63 -49 -80 -10 -60 33 17 55 54 50 87 -3 21 -6 19
-40 -27z"/>
<path d="M480 760 c-11 -7 -12 -12 -4 -20 8 -8 14 -7 23 4 14 17 1 28 -19 16z"/>
<path d="M1890 542 c-19 -2 -41 -10 -47 -19 -14 -18 -16 -207 -4 -318 l6 -60
36 -3 c42 -4 49 9 49 96 0 67 20 69 58 6 45 -78 63 -95 110 -101 23 -3 42 -3
42 1 0 4 -16 38 -35 76 l-35 70 35 46 c80 105 26 195 -125 206 -30 2 -71 2
-90 0z m143 -48 c28 -5 42 -14 53 -36 22 -42 15 -100 -14 -113 -33 -14 -36
-44 -13 -105 11 -30 19 -55 17 -57 -2 -2 -17 18 -35 45 -38 60 -68 89 -102 97
-30 7 -38 -1 -50 -49 -5 -24 -8 -14 -10 44 -7 169 -3 180 70 180 25 0 63 -3
84 -6z"/>
<path d="M1890 410 l0 -70 53 0 c62 0 132 30 142 59 6 21 -9 60 -29 73 -6 4
-46 8 -88 8 l-78 0 0 -70z m134 27 c30 -22 16 -51 -29 -58 -54 -9 -65 -3 -65
37 0 33 1 34 38 34 21 0 46 -6 56 -13z"/>
<path d="M1027 534 c-4 -4 -7 -95 -7 -201 l0 -194 43 3 42 3 3 73 3 72 79 0
80 0 0 -65 c0 -49 3 -65 14 -65 18 0 26 31 26 106 0 74 0 74 -137 74 l-92 0
-4 -37 c-2 -21 -4 -2 -4 42 0 44 2 65 4 48 l4 -33 114 0 c98 0 115 2 124 18 8
12 11 -5 11 -68 0 -97 8 -139 21 -118 10 15 12 298 3 322 -8 22 -70 22 -78 0
-3 -9 -6 -40 -6 -70 l0 -54 -80 0 -80 0 0 64 c0 36 -3 67 -7 69 -17 10 -69 17
-76 11z"/>
<path d="M1490 348 c0 -168 9 -239 24 -198 3 8 7 89 8 179 l3 165 30 8 c38 11
159 -1 130 -13 -11 -4 -51 -8 -88 -8 l-68 -1 6 -57 c4 -32 11 -62 15 -66 4 -5
29 -12 56 -16 l49 -9 -63 -1 -63 -1 3 -72 3 -73 78 4 c51 2 77 -1 77 -8 0 -7
-21 -11 -54 -11 -57 0 -82 -13 -43 -24 12 -3 45 -6 73 -6 57 0 78 15 72 52 -3
21 -9 23 -78 28 l-75 5 0 30 c0 31 1 32 103 51 19 4 23 10 20 37 -3 30 -6 33
-55 42 -58 11 -79 26 -70 49 5 12 21 16 62 16 64 0 95 13 95 38 0 36 -21 42
-137 42 l-113 0 0 -182z"/>
<path d="M2240 348 c0 -184 7 -225 32 -200 9 9 14 64 16 187 l4 175 74 0 c72
0 104 -12 61 -24 -12 -3 -46 -6 -74 -6 l-53 0 0 -69 0 -70 48 -4 47 -3 -48 -2
-48 -2 3 -72 3 -73 50 -6 c44 -5 45 -6 13 -7 -20 -1 -39 -6 -43 -11 -8 -14 49
-23 115 -19 l55 3 0 35 0 35 -67 7 c-80 8 -88 12 -88 44 0 20 5 24 28 24 15 0
44 3 65 7 37 6 38 6 35 47 l-3 41 -57 3 c-59 3 -85 20 -74 47 4 11 22 15 73
15 81 0 96 8 91 46 l-3 29 -127 3 -128 3 0 -183z"/>
<path d="M731 441 c-22 -88 -93 -151 -194 -176 l-52 -13 46 -1 c126 -3 225 89
217 202 l-3 42 -14 -54z"/>
</g>
</svg>
